<?xml version="1.0" encoding="UTF-8" standalone="no"?>
<!-- Created with Inkscape (http://www.inkscape.org/) -->

<svg
   xmlns:osb="http://www.openswatchbook.org/uri/2009/osb"
   xmlns:dc="http://purl.org/dc/elements/1.1/"
   xmlns:cc="http://creativecommons.org/ns#"
   xmlns:rdf="http://www.w3.org/1999/02/22-rdf-syntax-ns#"
   xmlns:svg="http://www.w3.org/2000/svg"
   xmlns="http://www.w3.org/2000/svg"
   xmlns:sodipodi="http://sodipodi.sourceforge.net/DTD/sodipodi-0.dtd"
   xmlns:inkscape="http://www.inkscape.org/namespaces/inkscape"
   width="744.09448819"
   height="1052.3622047"
   id="svg5103"
   version="1.1"
   inkscape:version="0.48.0 r9654"
   sodipodi:docname="New document 10">
  <defs
     id="defs5105">
    <linearGradient
       id="linearGradient7122"
       osb:paint="solid">
      <stop
         style="stop-color:#000000;stop-opacity:1;"
         offset="0"
         id="stop7124" />
    </linearGradient>
  </defs>
  <sodipodi:namedview
     id="base"
     pagecolor="#ffffff"
     bordercolor="#666666"
     borderopacity="1.0"
     inkscape:pageopacity="0.0"
     inkscape:pageshadow="2"
     inkscape:zoom="0.74213993"
     inkscape:cx="372.04724"
     inkscape:cy="526.18109"
     inkscape:document-units="px"
     inkscape:current-layer="layer1"
     showgrid="false"
     inkscape:window-width="1816"
     inkscape:window-height="999"
     inkscape:window-x="20"
     inkscape:window-y="20"
     inkscape:window-maximized="0" />
  <metadata
     id="metadata5108">
    <rdf:RDF>
      <cc:Work
         rdf:about="">
        <dc:format>image/svg+xml</dc:format>
        <dc:type
           rdf:resource="http://purl.org/dc/dcmitype/StillImage" />
        <dc:title></dc:title>
      </cc:Work>
    </rdf:RDF>
  </metadata>
  <g
     inkscape:label="Layer 1"
     inkscape:groupmode="layer"
     id="layer1">
    <g
       id="g7132"
       transform="matrix(0.5,0,0,0.5,-48.37397,-24.714366)">
      <rect
         transform="matrix(0.70710678,0.70710678,-0.70710678,0.70710678,0,0)"
         y="-2.01334"
         x="297.34106"
         height="50"
         width="400"
         id="rect7128"
         style="fill:#000000;fill-opacity:1;stroke:none" />
      <rect
         transform="matrix(0.70710678,-0.70710678,0.70710678,0.70710678,0,0)"
         style="fill:#000000;fill-opacity:1;stroke:none"
         id="rect7130"
         width="400"
         height="50"
         x="-222.98665"
         y="472.34109" />
    </g>
    <g
       id="g7144"
       transform="matrix(0.5,0,0,0.5,91.76132,-91.413374)">
      <path
         transform="matrix(1.2082114,0,0,0.59965681,174.9598,162.6287)"
         d="m 320.69424,788.93475 c 0,64.37146 -53.69157,116.55484 -119.92347,116.55484 -66.23191,0 -119.92348,-52.18338 -119.92348,-116.55484 0,-64.37146 53.69157,-116.55484 119.92348,-116.55484 66.2319,0 119.92347,52.18338 119.92347,116.55484 z"
         sodipodi:ry="116.55484"
         sodipodi:rx="119.92348"
         sodipodi:cy="788.93475"
         sodipodi:cx="200.77077"
         id="path7138"
         style="fill:none;stroke:#000000;stroke-width:29.37089348;stroke-linecap:round;stroke-linejoin:miter;stroke-miterlimit:4;stroke-opacity:1;stroke-dasharray:none"
         sodipodi:type="arc" />
      <rect
         y="433.88043"
         x="405.03333"
         height="200"
         width="25"
         id="rect7140"
         style="fill:#000000;fill-opacity:1;stroke:none" />
      <path
         transform="matrix(1.1244545,0,0,1.3252499,-274.89091,-17.336322)"
         d="m 660.25281,317.99933 c 0,20.837 -19.90811,37.72873 -44.46601,37.72873 -24.55789,0 -44.466,-16.89173 -44.466,-37.72873 0,-20.83701 19.90811,-37.72873 44.466,-37.72873 24.5579,0 44.46601,16.89172 44.46601,37.72873 z"
         sodipodi:ry="37.728733"
         sodipodi:rx="44.466007"
         sodipodi:cy="317.99933"
         sodipodi:cx="615.7868"
         id="path7142"
         style="fill:#000000;fill-opacity:1;stroke:none"
         sodipodi:type="arc" />
    </g>
    <g
       id="g7187"
       transform="matrix(0.5,0,0,0.5,-70.606978,23.794004)">
      <rect
         y="592.88013"
         x="226.37241"
         height="200"
         width="200"
         id="rect7149"
         style="fill:none;stroke:#000000;stroke-width:25;stroke-miterlimit:4;stroke-opacity:1;stroke-dasharray:none" />
      <rect
         transform="matrix(-0.70710678,-0.70710678,0.70710678,-0.70710678,0,0)"
         y="-178.91432"
         x="-799.14258"
         height="150"
         width="25"
         id="rect7153"
         style="fill:#000000;fill-opacity:1;stroke:none" />
      <g
         id="g7177">
        <rect
           transform="scale(-1,-1)"
           y="-951.30304"
           x="-378.03317"
           height="150"
           width="25"
           id="rect7155"
           style="fill:#000000;fill-opacity:1;stroke:none" />
        <g
           id="g7163"
           transform="translate(15.279488,4.0423584)">
          <rect
             y="481.09827"
             x="272.76035"
             height="54.986679"
             width="79.986679"
             id="rect7151"
             style="fill:none;stroke:#000000;stroke-width:20.01332092;stroke-linecap:round;stroke-linejoin:miter;stroke-miterlimit:4;stroke-opacity:1;stroke-dasharray:none" />
          <rect
             transform="scale(-1,-1)"
             y="-947.26068"
             x="-287.75369"
             height="150"
             width="25"
             id="rect7157"
             style="fill:#000000;fill-opacity:1;stroke:none" />
        </g>
      </g>
      <rect
         style="fill:#000000;fill-opacity:1;stroke:none"
         id="rect7183"
         width="25"
         height="75"
         x="909.84131"
         y="335.50433"
         transform="matrix(0.70710678,0.70710678,-0.70710678,0.70710678,0,0)" />
      <rect
         transform="matrix(0.70710678,0.70710678,-0.70710678,0.70710678,0,0)"
         y="388.39938"
         x="856.94623"
         height="75"
         width="25"
         id="rect7185"
         style="fill:#000000;fill-opacity:1;stroke:none" />
    </g>
    <g
       id="g7229"
       transform="matrix(0.5,0,0,0.5,61.44359,59.501564)">
      <rect
         style="fill:none;stroke:#000000;stroke-width:25;stroke-miterlimit:4;stroke-opacity:1;stroke-dasharray:none"
         id="rect7200"
         width="200"
         height="200"
         x="416.36353"
         y="571.32086" />
      <rect
         style="fill:#000000;fill-opacity:1;stroke:none"
         id="rect7202"
         width="25"
         height="150"
         x="-895.37482"
         y="-157.00005"
         transform="matrix(-0.70710678,-0.70710678,0.70710678,-0.70710678,0,0)" />
      <g
         transform="translate(189.99112,-21.559276)"
         id="g7204">
        <rect
           style="fill:#000000;fill-opacity:1;stroke:none"
           id="rect7206"
           width="25"
           height="150"
           x="-378.03317"
           y="-951.30304"
           transform="scale(-1,-1)" />
        <g
           transform="translate(15.279488,4.0423584)"
           id="g7208">
          <rect
             style="fill:none;stroke:#000000;stroke-width:20.01332092;stroke-linecap:round;stroke-linejoin:miter;stroke-miterlimit:4;stroke-opacity:1;stroke-dasharray:none"
             id="rect7210"
             width="79.986679"
             height="54.986679"
             x="272.76035"
             y="481.09827" />
          <rect
             style="fill:#000000;fill-opacity:1;stroke:none"
             id="rect7212"
             width="25"
             height="150"
             x="-287.75369"
             y="-947.26068"
             transform="scale(-1,-1)" />
        </g>
      </g>
      <rect
         transform="matrix(0.70710678,0.70710678,-0.70710678,0.70710678,0,0)"
         y="250.96945"
         x="1026.1122"
         height="75"
         width="25"
         id="rect7214"
         style="fill:#000000;fill-opacity:1;stroke:none" />
      <rect
         style="fill:#000000;fill-opacity:1;stroke:none"
         id="rect7216"
         width="25"
         height="75"
         x="973.21716"
         y="303.86453"
         transform="matrix(0.70710678,0.70710678,-0.70710678,0.70710678,0,0)" />
      <rect
         transform="matrix(-0.70710678,-0.70710678,0.70710678,-0.70710678,0,0)"
         y="-297.49228"
         x="-754.88269"
         height="150"
         width="25"
         id="rect7227"
         style="fill:#000000;fill-opacity:1;stroke:none" />
    </g>
    <g
       id="g7277"
       transform="translate(-66.60296,-6.9933108)">
      <rect
         y="564.79712"
         x="494.6503"
         height="100"
         width="100"
         id="rect7243"
         style="fill:none;stroke:#000000;stroke-width:12.5;stroke-miterlimit:4;stroke-opacity:1;stroke-dasharray:none" />
      <g
         transform="matrix(0.5,0,0,0.5,389.10384,270.37823)"
         id="g7251">
        <rect
           style="fill:none;stroke:#000000;stroke-width:20.01332092;stroke-linecap:round;stroke-linejoin:miter;stroke-miterlimit:4;stroke-opacity:1;stroke-dasharray:none"
           id="rect7253"
           width="79.986679"
           height="54.986679"
           x="272.76035"
           y="481.09827" />
        <rect
           style="fill:#000000;fill-opacity:1;stroke:none"
           id="rect7255"
           width="25"
           height="150"
           x="-287.75369"
           y="-947.26068"
           transform="scale(-1,-1)" />
      </g>
      <rect
         transform="matrix(0,-1,1,0,0,0)"
         style="fill:#000000;fill-opacity:1;stroke:none"
         id="rect7257"
         width="12.5"
         height="37.5"
         x="-755.24695"
         y="520.61249" />
      <rect
         style="fill:#000000;fill-opacity:1;stroke:none"
         id="rect7261"
         width="12.5"
         height="75"
         x="36.703888"
         y="-865.62"
         transform="matrix(-0.70710678,0.70710678,-0.70710678,-0.70710678,0,0)" />
    </g>
    <g
       transform="matrix(-1,0,0,1,1166.227,-7.3263256)"
       id="g7285">
      <rect
         style="fill:none;stroke:#000000;stroke-width:12.5;stroke-miterlimit:4;stroke-opacity:1;stroke-dasharray:none"
         id="rect7287"
         width="100"
         height="100"
         x="494.6503"
         y="564.79712" />
      <g
         id="g7289"
         transform="matrix(0.5,0,0,0.5,389.10384,270.37823)">
        <rect
           y="481.09827"
           x="272.76035"
           height="54.986679"
           width="79.986679"
           id="rect7291"
           style="fill:none;stroke:#000000;stroke-width:20.01332092;stroke-linecap:round;stroke-linejoin:miter;stroke-miterlimit:4;stroke-opacity:1;stroke-dasharray:none" />
        <rect
           transform="scale(-1,-1)"
           y="-947.26068"
           x="-287.75369"
           height="150"
           width="25"
           id="rect7293"
           style="fill:#000000;fill-opacity:1;stroke:none" />
      </g>
      <rect
         y="520.61249"
         x="-755.24695"
         height="37.5"
         width="12.5"
         id="rect7295"
         style="fill:#000000;fill-opacity:1;stroke:none"
         transform="matrix(0,-1,1,0,0,0)" />
      <rect
         transform="matrix(-0.70710678,0.70710678,-0.70710678,-0.70710678,0,0)"
         y="-865.62"
         x="36.703888"
         height="75"
         width="12.5"
         id="rect7297"
         style="fill:#000000;fill-opacity:1;stroke:none" />
    </g>
  </g>
</svg>
